<?xml version="1.0" encoding="UTF-8"?>
<!DOCTYPE svg PUBLIC "-//W3C//DTD SVG 1.1//EN" "http://www.w3.org/Graphics/SVG/1.1/DTD/svg11.dtd">
<svg xmlns="http://www.w3.org/2000/svg" version="1.1" width="500px" height="500px" style="shape-rendering:geometricPrecision; text-rendering:geometricPrecision; image-rendering:optimizeQuality; fill-rule:evenodd; clip-rule:evenodd" xmlns:xlink="http://www.w3.org/1999/xlink">
<g><path style="opacity:1" fill="#fefeff" d="M -0.5,-0.5 C 166.167,-0.5 332.833,-0.5 499.5,-0.5C 499.5,166.167 499.5,332.833 499.5,499.5C 332.833,499.5 166.167,499.5 -0.5,499.5C -0.5,332.833 -0.5,166.167 -0.5,-0.5 Z"/></g>
<g><path style="opacity:1" fill="#087aff" d="M 103.5,252.5 C 103.5,244.167 103.5,235.833 103.5,227.5C 99.8333,227.5 96.1667,227.5 92.5,227.5C 91.1667,222.833 91.1667,218.167 92.5,213.5C 96.1667,213.5 99.8333,213.5 103.5,213.5C 103.5,206.833 103.5,200.167 103.5,193.5C 103.611,192.883 103.944,192.383 104.5,192C 110.167,191.333 115.833,191.333 121.5,192C 122.479,198.744 122.812,205.578 122.5,212.5C 127.511,212.334 132.511,212.501 137.5,213C 138,213.5 138.5,214 139,214.5C 139.799,219.087 139.632,223.587 138.5,228C 133.177,228.499 127.844,228.666 122.5,228.5C 122.334,236.174 122.5,243.841 123,251.5C 123.465,252.931 124.299,254.097 125.5,255C 130.418,255.195 135.251,255.695 140,256.5C 140.667,261.167 140.667,265.833 140,270.5C 131.833,271.922 123.667,271.755 115.5,270C 107.897,266.624 103.897,260.791 103.5,252.5 Z"/></g>
<g><path style="opacity:1" fill="#077aff" d="M 175.5,193.5 C 175.5,200.167 175.5,206.833 175.5,213.5C 180.833,213.5 186.167,213.5 191.5,213.5C 192.824,218.234 192.824,223.067 191.5,228C 186.177,228.499 180.844,228.666 175.5,228.5C 175.334,235.508 175.5,242.508 176,249.5C 176.295,251.931 177.462,253.764 179.5,255C 184.086,255.197 188.586,255.697 193,256.5C 193.667,261.167 193.667,265.833 193,270.5C 184.847,271.885 176.681,271.719 168.5,270C 162.508,267.341 158.675,262.841 157,256.5C 156.5,247.173 156.334,237.839 156.5,228.5C 144.983,230.47 141.149,225.803 145,214.5C 145.5,214 146,213.5 146.5,213C 149.817,212.502 153.15,212.335 156.5,212.5C 156.334,205.825 156.5,199.158 157,192.5C 162.75,191.359 168.584,191.193 174.5,192C 175.056,192.383 175.389,192.883 175.5,193.5 Z"/></g>
<g><path style="opacity:1" fill="#077aff" d="M 382.5,191.5 C 388.758,191.19 394.924,191.524 401,192.5C 401.667,218.5 401.667,244.5 401,270.5C 395.25,271.641 389.416,271.807 383.5,271C 382.751,269.266 382.251,267.433 382,265.5C 375.114,272.092 366.948,274.259 357.5,272C 348.619,268.453 343.453,261.953 342,252.5C 341.333,245.167 341.333,237.833 342,230.5C 346.206,216.309 355.706,210.143 370.5,212C 374.363,213.181 377.863,215.014 381,217.5C 381.195,208.756 381.695,200.089 382.5,191.5 Z"/></g>
<g><path style="opacity:1" fill="#0c7aff" d="M 41.5,192.5 C 48.8409,192.334 56.1742,192.5 63.5,193C 65.259,194.008 66.4257,195.508 67,197.5C 75.6002,221.134 84.1002,244.801 92.5,268.5C 92.3918,269.442 92.0585,270.275 91.5,271C 85.5,271.667 79.5,271.667 73.5,271C 70.8726,267.241 69.2059,263.075 68.5,258.5C 58.1452,258.168 47.8119,258.501 37.5,259.5C 35.9623,263.407 34.2956,267.24 32.5,271C 26.2511,271.809 20.0844,271.642 14,270.5C 13.4163,267.743 13.7496,265.077 15,262.5C 23.5567,238.988 32.39,215.654 41.5,192.5 Z"/></g>
<g><path style="opacity:1" fill="#097aff" d="M 412.5,192.5 C 419.558,192.203 426.558,192.536 433.5,193.5C 438.333,200.5 443.167,207.5 448,214.5C 452.462,207.074 457.295,199.908 462.5,193C 469.414,192.189 476.248,192.355 483,193.5C 483.52,195.289 483.187,196.956 482,198.5C 474.958,209.419 467.791,220.252 460.5,231C 469.088,243.512 477.421,256.179 485.5,269C 485.355,269.772 485.022,270.439 484.5,271C 477.5,271.667 470.5,271.667 463.5,271C 457.878,263.589 452.378,256.089 447,248.5C 441.957,256.087 436.79,263.587 431.5,271C 424.253,271.812 417.086,271.646 410,270.5C 409.48,268.711 409.813,267.044 411,265.5C 419.124,254.549 426.624,243.216 433.5,231.5C 427.183,220.203 420.349,209.203 413,198.5C 411.388,196.544 411.222,194.544 412.5,192.5 Z"/></g>
<g><path style="opacity:1" fill="#7cb9ff" d="M 103.5,193.5 C 103.5,200.167 103.5,206.833 103.5,213.5C 99.8333,213.5 96.1667,213.5 92.5,213.5C 95.6248,212.521 98.9581,212.187 102.5,212.5C 102.177,205.978 102.51,199.645 103.5,193.5 Z"/></g>
<g><path style="opacity:1" fill="#7db7ff" d="M 175.5,193.5 C 176.49,199.645 176.823,205.978 176.5,212.5C 181.695,212.179 186.695,212.513 191.5,213.5C 186.167,213.5 180.833,213.5 175.5,213.5C 175.5,206.833 175.5,200.167 175.5,193.5 Z"/></g>
<g><path style="opacity:1" fill="#0e7aff" d="M 223.5,211.5 C 245.547,209.49 257.88,219.323 260.5,241C 260.695,243.352 260.028,245.352 258.5,247C 246.171,247.5 233.838,247.667 221.5,247.5C 222.732,260.354 228.399,262.854 238.5,255C 245.158,254.5 251.825,254.334 258.5,254.5C 258.067,259.113 256.067,262.946 252.5,266C 240.014,273.401 227.014,274.401 213.5,269C 206.733,264.645 202.566,258.478 201,250.5C 197.279,230.697 204.779,217.697 223.5,211.5 Z"/></g>
<g><path style="opacity:1" fill="#0d7aff" d="M 302.5,211.5 C 315.776,210.047 324.942,215.38 330,227.5C 330.667,241.833 330.667,256.167 330,270.5C 323.667,271.833 317.333,271.833 311,270.5C 310.667,258.167 310.333,245.833 310,233.5C 306.945,228.365 302.445,226.532 296.5,228C 294.667,229.167 293.167,230.667 292,232.5C 291.667,244.833 291.333,257.167 291,269.5C 290.5,270 290,270.5 289.5,271C 283.5,271.667 277.5,271.667 271.5,271C 270.172,251.863 270.172,232.696 271.5,213.5C 277.137,212.337 282.804,212.17 288.5,213C 289.113,215.147 289.779,217.314 290.5,219.5C 293.875,215.818 297.875,213.152 302.5,211.5 Z"/></g>
<g><path style="opacity:1" fill="#f7faff" d="M 62.5,240.5 C 55.9779,240.823 49.6446,240.49 43.5,239.5C 45.9808,230.555 49.1475,221.889 53,213.5C 56.667,222.335 59.8337,231.335 62.5,240.5 Z"/></g>
<g><path style="opacity:1" fill="#fafcff" d="M 238.5,231.5 C 238.5,232.833 238.5,234.167 238.5,235.5C 232.833,235.5 227.167,235.5 221.5,235.5C 222.05,226.104 226.717,222.937 235.5,226C 237.16,227.488 238.16,229.321 238.5,231.5 Z"/></g>
<g><path style="opacity:1" fill="#f9fbff" d="M 367.5,227.5 C 373.448,226.528 377.948,228.528 381,233.5C 381.667,238.5 381.667,243.5 381,248.5C 379.001,256.122 374.168,258.622 366.5,256C 364.263,253.97 362.763,251.47 362,248.5C 361.333,244.167 361.333,239.833 362,235.5C 363.117,232.241 364.95,229.574 367.5,227.5 Z"/></g>
<g><path style="opacity:1" fill="#7cb8ff" d="M 92.5,227.5 C 96.1667,227.5 99.8333,227.5 103.5,227.5C 103.5,235.833 103.5,244.167 103.5,252.5C 102.508,244.684 102.174,236.684 102.5,228.5C 98.9581,228.813 95.6248,228.479 92.5,227.5 Z"/></g>
<g><path style="opacity:1" fill="#96c7ff" d="M 238.5,231.5 C 239.451,232.919 239.784,234.585 239.5,236.5C 233.31,236.823 227.31,236.49 221.5,235.5C 227.167,235.5 232.833,235.5 238.5,235.5C 238.5,234.167 238.5,232.833 238.5,231.5 Z"/></g>
<g><path style="opacity:1" fill="#a1cdff" d="M 43.5,239.5 C 49.6446,240.49 55.9779,240.823 62.5,240.5C 55.9888,241.818 49.3222,241.818 42.5,240.5C 42.6236,239.893 42.9569,239.56 43.5,239.5 Z"/></g>
</svg>
